<svg fill="#4f6082" xmlns="http://www.w3.org/2000/svg" viewBox="0 0 489 489"><path d="M75.9 267v-34.1c0-5.1 4.1-9.2 9.2-9.2h34.1c5.1 0 9.2 4.1 9.2 9.2V267c0 5.1-4.1 9.2-9.2 9.2H85.1c-5.1-.1-9.2-4.2-9.2-9.2zm80.5 9.1h34.1c5.1 0 9.2-4.1 9.2-9.2v-34.1c0-5.1-4.1-9.2-9.2-9.2h-34.1c-5.1 0-9.2 4.1-9.2 9.2v34.1c.1 5.1 4.2 9.2 9.2 9.2zm71.3 0h34.1c5.1 0 9.2-4.1 9.2-9.2v-34.1c0-5.1-4.1-9.2-9.2-9.2h-34.1c-5.1 0-9.2 4.1-9.2 9.2v34.1c.1 5.1 4.2 9.2 9.2 9.2zm-71.3 69.5h34.1c5.1 0 9.2-4.1 9.2-9.2v-34.1c0-5.1-4.1-9.2-9.2-9.2h-34.1c-5.1 0-9.2 4.1-9.2 9.2v34.1c.1 5.1 4.2 9.2 9.2 9.2zm71.3 0h34.1c5.1 0 9.2-4.1 9.2-9.2v-34.1c0-5.1-4.1-9.2-9.2-9.2h-34.1c-5.1 0-9.2 4.1-9.2 9.2v34.1c.1 5.1 4.2 9.2 9.2 9.2zm71.4 0h34.1c5.1 0 9.2-4.1 9.2-9.2v-34.1c0-5.1-4.1-9.2-9.2-9.2h-34.1c-5.1 0-9.2 4.1-9.2 9.2v34.1c0 5.1 4.1 9.2 9.2 9.2zm-214 0h34.1c5.1 0 9.2-4.1 9.2-9.2v-34.1c0-5.1-4.1-9.2-9.2-9.2H85.1c-5.1 0-9.2 4.1-9.2 9.2v34.1c0 5.1 4.1 9.2 9.2 9.2zM227.7 415h34.1c5.1 0 9.2-4.1 9.2-9.2v-34.1c0-5.1-4.1-9.2-9.2-9.2h-34.1c-5.1 0-9.2 4.1-9.2 9.2v34.1c.1 5.1 4.2 9.2 9.2 9.2zm-71.3 0h34.1c5.1 0 9.2-4.1 9.2-9.2v-34.1c0-5.1-4.1-9.2-9.2-9.2h-34.1c-5.1 0-9.2 4.1-9.2 9.2v34.1c.1 5.1 4.2 9.2 9.2 9.2zm142.7-138.9h34.1c5.1 0 9.2-4.1 9.2-9.2v-34.1c0-5.1-4.1-9.2-9.2-9.2h-34.1c-5.1 0-9.2 4.1-9.2 9.2v34.1c0 5.1 4.1 9.2 9.2 9.2zm71.3 69.5h34.1c5.1 0 9.2-4.1 9.2-9.2v-34.1c0-5.1-4.1-9.2-9.2-9.2h-34.1c-5.1 0-9.2 4.1-9.2 9.2v34.1c.1 5.1 4.2 9.2 9.2 9.2zM299.1 415h34.1c5.1 0 9.2-4.1 9.2-9.2v-34.1c0-5.1-4.1-9.2-9.2-9.2h-34.1c-5.1 0-9.2 4.1-9.2 9.2v34.1c0 5.1 4.1 9.2 9.2 9.2zM0 435.5V106.2c0-29.5 24-53.5 53.5-53.5h60V19.5C113.5 8.7 122.2 0 133 0h30.5C174.3 0 183 8.7 183 19.5v33.1h123V19.5C306 8.7 314.7 0 325.5 0H356c10.8 0 19.5 8.7 19.5 19.5v33.1h60c29.5 0 53.5 24 53.5 53.5v329.4c0 29.5-24 53.5-53.5 53.5h-382C24 489 0 465 0 435.5zm41.4 0c0 6.7 5.5 12.2 12.2 12.2h381.9c6.7 0 12.2-5.5 12.2-12.2V191.6H41.4v243.9z"/></svg>