<?xml version="1.0" encoding="utf-8"?><svg xmlns="http://www.w3.org/2000/svg" xmlns:xlink="http://www.w3.org/1999/xlink"><symbol fill="#4f6082" viewBox="0 0 489 489" id="calendar" xmlns="http://www.w3.org/2000/svg"><path d="M75.9 267v-34.1c0-5.1 4.1-9.2 9.2-9.2h34.1c5.1 0 9.2 4.1 9.2 9.2V267c0 5.1-4.1 9.2-9.2 9.2H85.1c-5.1-.1-9.2-4.2-9.2-9.2zm80.5 9.1h34.1c5.1 0 9.2-4.1 9.2-9.2v-34.1c0-5.1-4.1-9.2-9.2-9.2h-34.1c-5.1 0-9.2 4.1-9.2 9.2v34.1c.1 5.1 4.2 9.2 9.2 9.2zm71.3 0h34.1c5.1 0 9.2-4.1 9.2-9.2v-34.1c0-5.1-4.1-9.2-9.2-9.2h-34.1c-5.1 0-9.2 4.1-9.2 9.2v34.1c.1 5.1 4.2 9.2 9.2 9.2zm-71.3 69.5h34.1c5.1 0 9.2-4.1 9.2-9.2v-34.1c0-5.1-4.1-9.2-9.2-9.2h-34.1c-5.1 0-9.2 4.1-9.2 9.2v34.1c.1 5.1 4.2 9.2 9.2 9.2zm71.3 0h34.1c5.1 0 9.2-4.1 9.2-9.2v-34.1c0-5.1-4.1-9.2-9.2-9.2h-34.1c-5.1 0-9.2 4.1-9.2 9.2v34.1c.1 5.1 4.2 9.2 9.2 9.2zm71.4 0h34.1c5.1 0 9.2-4.1 9.2-9.2v-34.1c0-5.1-4.1-9.2-9.2-9.2h-34.1c-5.1 0-9.2 4.1-9.2 9.2v34.1c0 5.1 4.1 9.2 9.2 9.2zm-214 0h34.1c5.1 0 9.2-4.1 9.2-9.2v-34.1c0-5.1-4.1-9.2-9.2-9.2H85.1c-5.1 0-9.2 4.1-9.2 9.2v34.1c0 5.1 4.1 9.2 9.2 9.2zM227.7 415h34.1c5.1 0 9.2-4.1 9.2-9.2v-34.1c0-5.1-4.1-9.2-9.2-9.2h-34.1c-5.1 0-9.2 4.1-9.2 9.2v34.1c.1 5.1 4.2 9.2 9.2 9.2zm-71.3 0h34.1c5.1 0 9.2-4.1 9.2-9.2v-34.1c0-5.1-4.1-9.2-9.2-9.2h-34.1c-5.1 0-9.2 4.1-9.2 9.2v34.1c.1 5.1 4.2 9.2 9.2 9.2zm142.7-138.9h34.1c5.1 0 9.2-4.1 9.2-9.2v-34.1c0-5.1-4.1-9.2-9.2-9.2h-34.1c-5.1 0-9.2 4.1-9.2 9.2v34.1c0 5.1 4.1 9.2 9.2 9.2zm71.3 69.5h34.1c5.1 0 9.2-4.1 9.2-9.2v-34.1c0-5.1-4.1-9.2-9.2-9.2h-34.1c-5.1 0-9.2 4.1-9.2 9.2v34.1c.1 5.1 4.2 9.2 9.2 9.2zM299.1 415h34.1c5.1 0 9.2-4.1 9.2-9.2v-34.1c0-5.1-4.1-9.2-9.2-9.2h-34.1c-5.1 0-9.2 4.1-9.2 9.2v34.1c0 5.1 4.1 9.2 9.2 9.2zM0 435.5V106.2c0-29.5 24-53.5 53.5-53.5h60V19.5C113.5 8.7 122.2 0 133 0h30.5C174.3 0 183 8.7 183 19.5v33.1h123V19.5C306 8.7 314.7 0 325.5 0H356c10.8 0 19.5 8.7 19.5 19.5v33.1h60c29.5 0 53.5 24 53.5 53.5v329.4c0 29.5-24 53.5-53.5 53.5h-382C24 489 0 465 0 435.5zm41.4 0c0 6.7 5.5 12.2 12.2 12.2h381.9c6.7 0 12.2-5.5 12.2-12.2V191.6H41.4v243.9z"/></symbol><symbol fill="#4f6082" viewBox="0 0 533.333 533.333" id="earth" xmlns="http://www.w3.org/2000/svg"><path d="M455.229 78.105c50.367 50.367 78.104 117.333 78.104 188.563 0 71.229-27.739 138.194-78.104 188.561-50.368 50.366-117.333 78.104-188.562 78.104-71.229 0-138.195-27.738-188.562-78.104C27.738 404.862 0 337.896 0 266.668c0-71.229 27.736-138.196 78.104-188.563S195.438 0 266.667 0c71.229 0 138.194 27.738 188.562 78.105zm-23.571 353.554c32.843-32.843 54.681-73.754 63.686-118.262-7.019 10.331-13.732 14.165-17.888-8.961-4.281-37.703-38.911-13.618-60.688-27.011-22.919 15.447-74.43-30.032-65.676 21.263 13.507 23.137 72.921-30.964 43.307 17.99-18.893 34.176-69.085 109.86-62.555 149.093.823 57.158-58.404 11.919-78.81-7.041-13.727-37.979-4.678-104.362-40.572-122.962-38.959-1.691-72.398-5.232-87.497-48.786-9.086-31.161 9.669-77.549 43.062-84.71 48.88-30.711 66.341 35.965 112.183 37.205 14.233-14.893 53.029-19.628 56.246-36.328-30.078-5.308 38.16-25.291-2.879-36.657-22.642 2.663-37.229 23.476-25.193 41.124-43.874 10.23-45.279-63.492-87.454-40.238-1.072 36.765-68.865 11.919-23.456 4.464 15.602-6.816-25.448-26.57-3.271-22.98 10.894-.592 47.569-13.444 37.644-22.084 20.421-12.677 37.583 30.359 57.572-.98 14.431-24.097-6.052-28.546-24.141-16.332-10.198-11.418 18.006-36.081 42.882-46.738 8.29-3.552 16.208-5.487 22.263-4.939 12.531 14.475 35.703 16.982 36.916-1.741-31.031-14.861-65.247-22.712-100.672-22.712-50.845 0-99.203 16.158-139.223 46.036 10.755 4.927 16.86 11.062 6.499 18.904-8.05 23.987-40.713 56.186-69.387 51.627-14.889 25.674-24.694 53.961-28.885 83.608 24.016 7.946 29.554 23.672 24.394 28.932-12.237 10.671-19.759 25.797-23.633 42.355 7.817 47.832 30.298 91.914 65.245 126.862C145.746 475.729 204.34 500 266.667 500c62.325 0 120.92-24.271 164.991-68.341z"/></symbol><symbol viewBox="0 0 58.39 58.39" id="folder" xmlns="http://www.w3.org/2000/svg"><path fill="#556080" d="M25 9.695l-5-7H0v51h58v-37H30z"/><path fill="#3d4451" d="M30 16.695h28v-7H25z"/><path fill="#21ae5e" d="M36.39 33.695h22v22h-22z"/><path fill="#fff" d="M46.39 35.281h2v16h-2z"/><path fill="#fff" d="M47.39 52.695l-7-6.707 1.475-1.414 5.525 5.293 5.524-5.293 1.476 1.414z"/></symbol><symbol fill="#4f6082" viewBox="0 0 460.298 460.297" id="home" xmlns="http://www.w3.org/2000/svg"><path d="M230.149 120.939L65.986 256.274c0 .191-.048.472-.144.855-.094.38-.144.656-.144.852v137.041c0 4.948 1.809 9.236 5.426 12.847 3.616 3.613 7.898 5.431 12.847 5.431h109.63V303.664h73.097v109.64h109.629c4.948 0 9.236-1.814 12.847-5.435 3.617-3.607 5.432-7.898 5.432-12.847V257.981c0-.76-.104-1.334-.288-1.707L230.149 120.939z"/><path d="M457.122 225.438L394.6 173.476V56.989c0-2.663-.856-4.853-2.574-6.567-1.704-1.712-3.894-2.568-6.563-2.568h-54.816c-2.666 0-4.855.856-6.57 2.568-1.711 1.714-2.566 3.905-2.566 6.567v55.673l-69.662-58.245c-6.084-4.949-13.318-7.423-21.694-7.423-8.375 0-15.608 2.474-21.698 7.423L3.172 225.438c-1.903 1.52-2.946 3.566-3.14 6.136-.193 2.568.472 4.811 1.997 6.713l17.701 21.128c1.525 1.712 3.521 2.759 5.996 3.142 2.285.192 4.57-.476 6.855-1.998L230.149 95.817l197.57 164.741c1.526 1.328 3.521 1.991 5.996 1.991h.858c2.471-.376 4.463-1.43 5.996-3.138l17.703-21.125c1.522-1.906 2.189-4.145 1.991-6.716-.195-2.563-1.242-4.609-3.141-6.132z"/></symbol><symbol viewBox="0 0 97.75 97.75" id="vk" xmlns="http://www.w3.org/2000/svg"><path d="M48.875 0C21.883 0 0 21.882 0 48.875S21.883 97.75 48.875 97.75 97.75 75.868 97.75 48.875 75.867 0 48.875 0zm24.792 54.161c2.278 2.225 4.688 4.319 6.733 6.774.906 1.086 1.76 2.209 2.41 3.472.928 1.801.09 3.776-1.522 3.883l-10.013-.002c-2.586.214-4.644-.829-6.379-2.597-1.385-1.409-2.67-2.914-4.004-4.371-.545-.598-1.119-1.161-1.803-1.604-1.365-.888-2.551-.616-3.333.81-.797 1.451-.979 3.059-1.055 4.674-.109 2.361-.821 2.978-3.19 3.089-5.062.237-9.865-.531-14.329-3.083-3.938-2.251-6.986-5.428-9.642-9.025-5.172-7.012-9.133-14.708-12.692-22.625-.801-1.783-.215-2.737 1.752-2.774 3.268-.063 6.536-.055 9.804-.003 1.33.021 2.21.782 2.721 2.037 1.766 4.345 3.931 8.479 6.644 12.313.723 1.021 1.461 2.039 2.512 2.76 1.16.796 2.044.533 2.591-.762.35-.823.501-1.703.577-2.585.26-3.021.291-6.041-.159-9.05-.28-1.883-1.339-3.099-3.216-3.455-.956-.181-.816-.535-.351-1.081.807-.944 1.563-1.528 3.074-1.528l11.313-.002c1.783.35 2.183 1.15 2.425 2.946l.01 12.572c-.021.695.349 2.755 1.597 3.21 1 .33 1.66-.472 2.258-1.105 2.713-2.879 4.646-6.277 6.377-9.794.764-1.551 1.423-3.156 2.063-4.764.476-1.189 1.216-1.774 2.558-1.754l10.894.013c.321 0 .647.003.965.058 1.836.314 2.339 1.104 1.771 2.895-.894 2.814-2.631 5.158-4.329 7.508-1.82 2.516-3.761 4.944-5.563 7.471-1.656 2.31-1.525 3.473.531 5.479z"/></symbol><symbol viewBox="0 0 97.75 97.75" id="youtube" xmlns="http://www.w3.org/2000/svg"><path d="M39.969 59.587L61.91 48.211c-7.359-3.84-14.627-7.63-21.941-11.447v22.823z"/><path d="M48.875 0C21.883 0 0 21.882 0 48.875S21.883 97.75 48.875 97.75 97.75 75.868 97.75 48.875 75.867 0 48.875 0zm33.301 65.189c-.846 3.67-3.848 6.377-7.461 6.78-8.557.957-17.217.962-25.842.957-8.625.005-17.287 0-25.846-.957-3.613-.403-6.613-3.11-7.457-6.78-1.203-5.228-1.203-10.933-1.203-16.314s.014-11.088 1.217-16.314c.844-3.67 3.844-6.378 7.457-6.782 8.559-.956 17.221-.961 25.846-.956 8.623-.005 17.285 0 25.841.956 3.615.404 6.617 3.111 7.461 6.782 1.203 5.227 1.193 10.933 1.193 16.314s-.003 11.087-1.206 16.314z"/></symbol></svg>